{"title":"The.Joneses.2009.720p.BRRip.XviD.AC3-LEGi0N","uid":5744032,"size":2568780600,"categoryP":"video","categoryS":"hd___movies","magnet":"?xt=urn:btih:afe2b7950e0f8f498fd2d6e766bc407bfc99d194&amp;dn=The.Joneses.2009.720p.BRRip.XviD.AC3-LEGi0N&amp;tr=udp%3A%2F%2Ftracker.openbittorrent.com%3A80&amp;tr=udp%3A%2F%2Fopen.demonii.com%3A1337&amp;tr=udp%3A%2F%2Ftracker.coppersurfer.tk%3A6969&amp;tr=udp%3A%2F%2Fexodus.desync.com%3A6969","seeders":0,"leechers":0,"uploader":"TvTeam","files":5,"time":1281132990,"description":". \n  &lt;a href=&quot;\nhttp://www.torrentday.com/&quot; rel=&quot;nofollow&quot; target=&quot;_NEW&quot;&gt;\nhttp://www.torrentday.com/&lt;/a&gt;        :     The Hottest Private Tracker On The Net!!!\n\n\n               www . TorrentDay . Com \n(((((((((((((= Enjoy No RAR releases =))))))))))))))))))))\n\n\n...................................NFO:....................................\n\n.[img]http://leetleech.org/images/76541870044773766382.png[/img] \n\n[b]The Joneses 2009 720p BRRip XviD AC3-LEGi0N\n\n[img]http://leetleech.org/images/48874973695367351744.png[/img]\n[color=red]General[/color]\nFormat:AVI \nFile size: 2.37 GiB\nDuration: 1h 35mn\nOverall bit rate: 3 538 Kbps\nIMDB Rating: 6.5/10   659 votes\nGenre: Drama \nRelease Date: 16 April 2010             \nIMDb Link: http://www.imdb.com/title/tt1285309/\nSource: 720p Bluray x264-MACHD \n\n[color=red]Video[/color]\nFormat: MPEG-4 Visual\nFormat profile: Streaming Video@L1\nFormat settings, BVOP: Yes\nFormat settings, QPel: No\nFormat settings, GMC: No warppoints\nFormat settings, Matrix: Default (H.263)\nMuxing mode: Packed bitstream\nCodec ID: XVID\nBit rate: 3 078 Kbps\nWidth: 1 280 pixels\nHeight: 544 pixels\nDisplay aspect ratio: 2.35\nFrame rate: 23.976 fps\nResolution: 24 bits\nColorimetry: 4:2:0\nScan type: Progressive\nBits/(Pixel*Frame): 0.184\nStream size: 2.06 GiB (87%)\n\n[color=red]Audio[/color]\nFormat: AC-3\nBit rate mode: Constant\nBit rate: 448 Kbps\nChannel(s): 6 channels\nSampling rate: 48.0 KHz\nStream size: 307 MiB (13%) \n\n[img]http://leetleech.org/images/89524873606771859129.png[/img]\nA seemingly perfect family moves into a suburban neighborhood, \nbut when it comes to the truth as to why they're living there, \nthey don't exactly come clean with their neighbors.          \n                                   \n[img]http://leetleech.org/images/84434050717770922575.png[/img]\nAmber Heard\t ... \tJenn\nDemi Moore\t... \tKate\nDavid Duchovny\t... \tSteve\nGary Cole\t... \tLarry\nGlenne Headly\t... \tSummer\nBen Hollingsworth\t... \tMick Jones\nSonya Thompson\t... \tRestaurant Patron\nLauren Hutton\t... \tKC\nChris Williams\t... \tBilly\nCatherine Dyer\t... \tSylivia\nChristine Evangelista\t... \tNaomi\nRobert Pralgo\t... \tAlex 'The Hammer' Bayner\nAshley LeConte Campbell\t... \tMary Beth\nKim Wall\t... \tBethany\nWilbur Fitzgerald\t... \tGolfer\nRic Reitz\t... \tBob\nMark Oliver\t... \tMan #1\nTiffany Morgan\t... \tMelanie Baynor\nAndrew DiPalma\t... \tWill\nJustin Price\t... \tSkateboarder / high school Jock\nCarlotta Montanari\t... \tVoiceover / Dubbing\nJason MacDonald\t... \tGuy #2\nNiko Stjepanovic\t... \tHarry Woods\nRon Clinton Smith\t... \tPoliceman \n\n[color=red]GREETZ[/color]\nNoir | xXTHORNXx | bigimac | LUSi |\n\nkempas | KaN1vE | mike160 | skillz |\n\nLungbuster | Sheikh | DiLLoN1369  |\n\n0B5C3N3 | FLAWL3SS | AND ALL P2P![/b]\n\n[color=red]SAMPLE INCLUDED[/color]\n\n[img]http://leetleech.org/images/95521316153253938506.png[/img]\n[img]http://leetleech.org/images/95871217815089081898.png[/img]\n[img]http://leetleech.org/images/37429980445494843065.png[/img] \n[img]http://leetleech.org/images/28087638251186850499.png[/img] \n[img]http://leetleech.org/images/70364016493077787308.png[/img]\n[img]http://leetleech.org/images/78148937367916324622.png[/img]\n[img]http://leetleech.org/images/12755021538703799215.png[/img]","torrent":{"xt":"urn:btih:afe2b7950e0f8f498fd2d6e766bc407bfc99d194","amp;dn":"The.Joneses.2009.720p.BRRip.XviD.AC3-LEGi0N","amp;tr":["udp%3A%2F%2Ftracker.openbittorrent.com%3A80","udp%3A%2F%2Fopen.demonii.com%3A1337","udp%3A%2F%2Ftracker.coppersurfer.tk%3A6969","udp%3A%2F%2Fexodus.desync.com%3A6969"],"infoHash":"afe2b7950e0f8f498fd2d6e766bc407bfc99d194","infoHashBuffer":{"type":"Buffer","data":[175,226,183,149,14,15,143,73,143,210,214,231,102,188,64,123,252,153,209,148]},"announce":[],"urlList":[]}}